<svg xmlns="http://www.w3.org/2000/svg" xmlns:xlink="http://www.w3.org/1999/xlink" width="33" height="32" viewBox="0 0 33 32">
  <metadata><?xpacket begin="﻿" id="W5M0MpCehiHzreSzNTczkc9d"?>
<x:xmpmeta xmlns:x="adobe:ns:meta/" x:xmptk="Adobe XMP Core 5.6-c142 79.160924, 2017/07/13-01:06:39        ">
   <rdf:RDF xmlns:rdf="http://www.w3.org/1999/02/22-rdf-syntax-ns#">
      <rdf:Description rdf:about=""/>
   </rdf:RDF>
</x:xmpmeta>
                                                                                                    
                                                                                                    
                                                                                                    
                                                                                                    
                                                                                                    
                                                                                                    
                                                                                                    
                                                                                                    
                                                                                                    
                                                                                                    
                                                                                                    
                                                                                                    
                                                                                                    
                                                                                                    
                                                                                                    
                                                                                                    
                                                                                                    
                                                                                                    
                                                                                                    
                                                                                                    
                           
<?xpacket end="w"?></metadata>
<defs>
    <style>
      .cls-1 {
        fill-rule: evenodd;
        filter: url(#filter);
      }
    </style>
    <filter id="filter" x="0" y="0" width="33" height="32" filterUnits="userSpaceOnUse">
      <feFlood result="flood" flood-color="#f50049"/>
      <feComposite result="composite" operator="in" in2="SourceGraphic"/>
      <feBlend result="blend" in2="SourceGraphic"/>
    </filter>
  </defs>
  <path id="иконка_доставка" data-name="иконка доставка" class="cls-1" d="M31.239,7.211H26.662a4.386,4.386,0,0,0,1.2-3.016s0-.178,0-0.228A4.048,4.048,0,0,0,25.728.544a4.311,4.311,0,0,0-4.187,0L19.459,1.7A7.179,7.179,0,0,0,16.5,4.781,7.179,7.179,0,0,0,13.541,1.7L11.459,0.545a4.312,4.312,0,0,0-4.187,0A4.05,4.05,0,0,0,5.136,3.967c0,0.051,0,.228,0,0.228a4.387,4.387,0,0,0,1.2,3.016H1.761A1.745,1.745,0,0,0,0,8.936V13.03a1.745,1.745,0,0,0,1.761,1.725H2.567v15.52A1.745,1.745,0,0,0,4.327,32H28.673a1.745,1.745,0,0,0,1.761-1.725V14.755h0.806A1.745,1.745,0,0,0,33,13.03V8.936A1.745,1.745,0,0,0,31.239,7.211ZM20.18,2.947L22.262,1.8a2.83,2.83,0,0,1,2.748,0A2.627,2.627,0,0,1,26.4,4.015c0,0.034,0,.18,0,0.18a3.051,3.051,0,0,1-3.078,3.016H17.275A5.686,5.686,0,0,1,20.18,2.947ZM6.6,4.015A2.628,2.628,0,0,1,7.99,1.8a2.831,2.831,0,0,1,2.748,0L12.82,2.947a5.686,5.686,0,0,1,2.9,4.264H9.678A3.051,3.051,0,0,1,6.6,4.2S6.6,4.05,6.6,4.015Zm6.6,12.926H10.181a0.719,0.719,0,1,0,0,1.437H13.2V30.563H4.327a0.291,0.291,0,0,1-.294-0.288V14.755H13.2v2.186h0Zm0-3.623H1.761a0.291,0.291,0,0,1-.294-0.288V8.936a0.291,0.291,0,0,1,.294-0.288H13.2v4.67Zm5.133,17.245H14.667V8.648h3.667V30.563Zm10.633-.288a0.291,0.291,0,0,1-.294.288H19.8V18.378h2.794a0.719,0.719,0,1,0,0-1.437H19.8V14.755h9.167v15.52h0ZM31.533,13.03a0.291,0.291,0,0,1-.294.288H19.8V8.648H31.24a0.291,0.291,0,0,1,.294.288V13.03h0Zm-5.456,5.348h0.073a0.719,0.719,0,1,0,0-1.437H26.078A0.719,0.719,0,1,0,26.078,18.378Zm-19.453,0H6.7a0.719,0.719,0,1,0,0-1.437H6.624A0.719,0.719,0,1,0,6.624,18.378Z"/>
</svg>
