<svg data-name="Capa 1" xmlns="http://www.w3.org/2000/svg" viewBox="0 0 625.98 514.41"><path d="M613 65.38a13.83 13.83 0 0 0-16.14.32c-3.29 2.45-8.19 4.63-13.9 6.53 18.82-23.34 19.1-38.94 18.82-42.79a13.88 13.88 0 0 0-21.95-10.22 121.8 121.8 0 0 1-66.31 22.89 130.49 130.49 0 0 0-89.41-35.07c-72.5 0-131.48 59-131.48 131.46a130.11 130.11 0 0 0 .93 15.67c-121-3-219.1-117-220.09-118.21a13.86 13.86 0 0 0-22.55 2C20.13 90.53 32.7 140.4 53.8 175.28a13.87 13.87 0 0 0-20.44 12c-.9 55.3 24.36 88.45 49.83 107.75a13.88 13.88 0 0 0-8 16.94c17.72 57.12 59.32 78.54 88.52 86.55-33.48 23.61-74.9 29.14-106.36 29.14a219.31 219.31 0 0 1-34.07-2.44 13.87 13.87 0 0 0-10.75 24.75c63.15 47.48 139.4 57.45 192.25 57.45 41.78 0 70.8-6.11 72.27-6.42 271.31-63.36 281.62-306.62 281.19-350.95 50.85-46.72 59-65 60.23-69.51A13.84 13.84 0 0 0 613 65.38zm-78.1 68.44a13.85 13.85 0 0 0-4.52 11.24c.18 2.63 15 264.8-259.37 328.88-.26 0-27.6 5.75-66.24 5.75-36 0-83.66-4.92-129.13-24.88 41.63-2.66 92.68-15.44 129.41-56.06a13.9 13.9 0 0 0-10.38-23.17c-2.58 0-57.16-.66-84.49-51.4 12.65.4 24.12-1.47 32.62-5.34a13.88 13.88 0 0 0-2.87-26.2c-3-.64-65.79-14.95-77.12-81.23 9.84 3.76 21.83 6.36 33.42 4.66a13.87 13.87 0 0 0 7-24.29c-2.81-2.36-62.74-54.43-36.7-122.56 34.9 35.41 129.89 118.82 244.47 112.37a13.88 13.88 0 0 0 12.65-17.29A103.81 103.81 0 0 1 424.12 34.76a103 103 0 0 1 73.95 31 13.89 13.89 0 0 0 9.66 4.13h2.13a146.69 146.69 0 0 0 44.49-7.14A203.9 203.9 0 0 1 531 83.58a13.87 13.87 0 0 0 9.57 24.79c2.25-.18 12.12-1 24.34-3.23-7.73 7.88-17.53 17.35-30.01 28.68z" stroke="#000" stroke-miterlimit="10" stroke-width="14"/></svg>