<svg xmlns="http://www.w3.org/2000/svg" width="37.656" height="10.281" viewBox="0 0 37.656 10.281">
  <metadata><?xpacket begin="﻿" id="W5M0MpCehiHzreSzNTczkc9d"?>
<x:xmpmeta xmlns:x="adobe:ns:meta/" x:xmptk="Adobe XMP Core 5.6-c142 79.160924, 2017/07/13-01:06:39        ">
   <rdf:RDF xmlns:rdf="http://www.w3.org/1999/02/22-rdf-syntax-ns#">
      <rdf:Description rdf:about=""/>
   </rdf:RDF>
</x:xmpmeta>
                                                                                                    
                                                                                                    
                                                                                                    
                                                                                                    
                                                                                                    
                                                                                                    
                                                                                                    
                                                                                                    
                                                                                                    
                                                                                                    
                                                                                                    
                                                                                                    
                                                                                                    
                                                                                                    
                                                                                                    
                                                                                                    
                                                                                                    
                                                                                                    
                                                                                                    
                                                                                                    
                           
<?xpacket end="w"?></metadata>
<defs>
    <style>
      .cls-1 {
        fill-rule: evenodd;
      }
    </style>
  </defs>
  <path id="Cakes" class="cls-1" d="M9.306,2.049a4.609,4.609,0,0,0-2.368.606,4.208,4.208,0,0,0-1.619,1.7,5.3,5.3,0,0,0-.581,2.516,5.21,5.21,0,0,0,.568,2.51A3.875,3.875,0,0,0,6.9,10.991a4.955,4.955,0,0,0,2.394.555,3.422,3.422,0,0,0,1.277-.213,5.447,5.447,0,0,0,1.11-.626,0.566,0.566,0,0,1,.271-0.1,0.226,0.226,0,0,1,.2.174,2.289,2.289,0,0,1,.11.587h0.3q-0.052-.916-0.052-3.252h-0.3a7.4,7.4,0,0,1-.29,1.587,1.887,1.887,0,0,1-.665.9,1.926,1.926,0,0,1-.729.471,2.474,2.474,0,0,1-.871.161A2.1,2.1,0,0,1,7.693,9.972a6.771,6.771,0,0,1-.658-3.148,7.079,7.079,0,0,1,.632-3.168A2.051,2.051,0,0,1,9.6,2.385a2.493,2.493,0,0,1,.89.161,2.19,2.19,0,0,1,.748.471,2.08,2.08,0,0,1,.658.877,6.442,6.442,0,0,1,.31,1.458h0.3q0-2.245.052-3.123h-0.3Q12.184,3,11.926,3a0.418,0.418,0,0,1-.245-0.116,4.475,4.475,0,0,0-1.058-.619,3.512,3.512,0,0,0-1.316-.219h0Zm6.864,9.406a1.975,1.975,0,0,0,1.058-.271,2.428,2.428,0,0,0,.761-0.774,1.032,1.032,0,0,0,.31.774,1.437,1.437,0,0,0,.981.271,2.162,2.162,0,0,0,1.419-.477l-0.129-.219a0.847,0.847,0,0,1-.464.219,0.227,0.227,0,0,1-.219-0.123,1.056,1.056,0,0,1-.065-0.445V6.9a5.141,5.141,0,0,0-.1-1.123,1.424,1.424,0,0,0-.381-0.7,1.724,1.724,0,0,0-.774-0.439,4.133,4.133,0,0,0-1.1-.129,5.023,5.023,0,0,0-1.116.116,2.982,2.982,0,0,0-.858.323,1.73,1.73,0,0,0-.536.471,1.051,1.051,0,0,0-.174.613,1.047,1.047,0,0,0,.245.71,0.87,0.87,0,0,0,.7.284,1.063,1.063,0,0,0,.723-0.258,0.877,0.877,0,0,0,.3-0.7,0.962,0.962,0,0,0-.2-0.606,1.2,1.2,0,0,0-.561-0.387,1.308,1.308,0,0,1,.942-0.31,0.957,0.957,0,0,1,.781.3,1.286,1.286,0,0,1,.252.845V6.927a0.6,0.6,0,0,1-.329.542,5.227,5.227,0,0,1-1.039.413,9.1,9.1,0,0,0-1.1.419,2.1,2.1,0,0,0-.729.581,1.474,1.474,0,0,0-.31.961A1.59,1.59,0,0,0,14.9,11a1.691,1.691,0,0,0,1.271.458h0Zm0.916-.826a0.728,0.728,0,0,1-.587-0.252,1.123,1.123,0,0,1-.213-0.742,1.587,1.587,0,0,1,.142-0.7,1.476,1.476,0,0,1,.348-0.471q0.206-.181.542-0.426,0.258-.181.406-0.3a1.038,1.038,0,0,0,.239-0.277V10.1a1.047,1.047,0,0,1-.877.529h0Zm11.342-.206L26.261,6.8l0.826-.852A3.522,3.522,0,0,1,28.7,4.952V4.694q-0.439.039-1.51,0.039-0.8,0-1.51-.039V4.952a1.484,1.484,0,0,1,.723.2,0.535,0.535,0,0,1,.271.471,1.185,1.185,0,0,1-.426.787l-0.981.955a0.922,0.922,0,0,1-.329.232,1.576,1.576,0,0,1-.445.1V1.262a8.308,8.308,0,0,1-1.884.181q-0.387,0-.8-0.039V1.675a0.721,0.721,0,0,1,.639.271,1.554,1.554,0,0,1,.187.865v7.355a1.077,1.077,0,0,1-.187.729,0.847,0.847,0,0,1-.639.2v0.271q1.342-.051,1.781-0.052,0.387,0,1.677.052V11.094a0.76,0.76,0,0,1-.606-0.2,1.168,1.168,0,0,1-.168-0.729V7.946a1,1,0,0,1,.361.1,0.772,0.772,0,0,1,.271.3l1.277,2.31a0.5,0.5,0,0,1,.065.194,0.2,0.2,0,0,1-.1.181,0.533,0.533,0,0,1-.284.065v0.271q1.239-.051,1.665-0.052,0.322,0,1.355.052V11.094a0.714,0.714,0,0,1-.335-0.213,4.739,4.739,0,0,1-.335-0.458h0Zm5.29,0.065A1.431,1.431,0,0,1,32.9,10.23,1.805,1.805,0,0,1,32.281,9.4a3.674,3.674,0,0,1-.239-1.419q0-.413.013-0.606h3.626q0-2.865-2.426-2.865a3,3,0,0,0-2.3.923A3.755,3.755,0,0,0,30.093,8.1a3.665,3.665,0,0,0,.806,2.574,2.819,2.819,0,0,0,2.174.871,2.412,2.412,0,0,0,1.658-.587,3.078,3.078,0,0,0,.923-1.426l-0.232-.077a1.942,1.942,0,0,1-1.7,1.032h0Zm-0.542-5.7a0.777,0.777,0,0,1,.677.665,4.928,4.928,0,0,1,.2,1.684H32.029a4.609,4.609,0,0,1,.381-1.774,0.887,0.887,0,0,1,.768-0.574h0Zm6.606-.271a2.574,2.574,0,0,0-1.574.477,1.534,1.534,0,0,0-.645,1.3,1.763,1.763,0,0,0,.213.865,2.675,2.675,0,0,0,.516.671q0.3,0.284.884,0.748,0.49,0.387.736,0.606a2,2,0,0,1,.406.5,1.284,1.284,0,0,1,.161.645,0.858,0.858,0,0,1-.265.69,0.95,0.95,0,0,1-.639.226q-1.484,0-1.742-2.374H37.564q0,1.845-.052,2.581h0.271a0.894,0.894,0,0,1,.148-0.368A0.2,0.2,0,0,1,38.158,11a6.322,6.322,0,0,1,.594.271,2.527,2.527,0,0,0,1.213.271,3.146,3.146,0,0,0,1.226-.232,2.084,2.084,0,0,0,.884-0.671A1.632,1.632,0,0,0,42.4,9.636a1.792,1.792,0,0,0-.374-1.161,6.686,6.686,0,0,0-1.161-1.058l-0.374-.271a6.5,6.5,0,0,1-.929-0.768,1.064,1.064,0,0,1-.3-0.755,0.763,0.763,0,0,1,.252-0.606A0.937,0.937,0,0,1,40.158,4.8a1.3,1.3,0,0,1,1.142.574,3.268,3.268,0,0,1,.51,1.426H42.08q0-1.613.052-2.271H41.861a0.788,0.788,0,0,1-.11.355,0.241,0.241,0,0,1-.2.123,0.418,0.418,0,0,1-.232-0.09,2.21,2.21,0,0,0-.632-0.277,3.167,3.167,0,0,0-.9-0.123h0Z" transform="translate(-4.75 -1.25)"/>
</svg>
