<?xml version="1.0" encoding="utf-8"?>
<!-- Generator: Adobe Illustrator 22.1.0, SVG Export Plug-In . SVG Version: 6.00 Build 0)  -->
<svg version="1.1" id="Слой_1" xmlns="http://www.w3.org/2000/svg" xmlns:xlink="http://www.w3.org/1999/xlink" x="0px" y="0px"
	 viewBox="0 0 38 12" style="enable-background:new 0 0 38 12;" xml:space="preserve">
<style type="text/css">
	.st0{fill:#FFFFFF;}
</style>
<path class="st0" d="M4.6,0.8C3.7,0.8,2.9,1,2.2,1.4c-0.7,0.4-1.3,1-1.6,1.7C0.2,3.9,0,4.7,0,5.6c0,0.9,0.2,1.7,0.6,2.5
	c0.4,0.7,0.9,1.2,1.6,1.6c0.7,0.4,1.6,0.6,2.4,0.6c0.4,0,0.9-0.1,1.3-0.2c0.4-0.2,0.8-0.4,1.1-0.6C7,9.4,7.1,9.4,7.2,9.4
	c0.1,0,0.2,0.1,0.2,0.2c0.1,0.2,0.1,0.4,0.1,0.6h0.3c0-0.6-0.1-1.7-0.1-3.3H7.5c0,0.5-0.1,1.1-0.3,1.6C7,8.8,6.8,9.1,6.5,9.4
	C6.3,9.6,6.1,9.7,5.8,9.8C5.5,9.9,5.2,10,4.9,10c-0.8,0-1.6-0.5-2-1.3c-0.5-1-0.7-2.1-0.7-3.1c0-1.1,0.2-2.2,0.6-3.2
	C3.2,1.6,4,1.1,4.8,1.1c0.3,0,0.6,0.1,0.9,0.2C6,1.4,6.3,1.6,6.5,1.8C6.8,2,7,2.3,7.1,2.6c0.2,0.5,0.3,1,0.3,1.5h0.3
	c0-1.5,0-2.5,0.1-3.1H7.5c0,0.5-0.2,0.8-0.3,0.8C7.1,1.7,7,1.7,6.9,1.6C6.6,1.4,6.3,1.2,5.9,1C5.5,0.9,5,0.8,4.6,0.8L4.6,0.8z
	 M11.4,10.2c0.4,0,0.7-0.1,1.1-0.3c0.3-0.2,0.6-0.5,0.8-0.8c0,0.3,0.1,0.6,0.3,0.8c0.3,0.2,0.6,0.3,1,0.3c0.5,0,1-0.2,1.4-0.5
	l-0.1-0.2c-0.1,0.1-0.3,0.2-0.5,0.2c-0.1,0-0.2,0-0.2-0.1c-0.1-0.1-0.1-0.3-0.1-0.4V5.6c0-0.4,0-0.8-0.1-1.1
	c-0.1-0.3-0.2-0.5-0.4-0.7c-0.2-0.2-0.5-0.4-0.8-0.4c-0.4-0.1-0.7-0.1-1.1-0.1c-0.4,0-0.7,0-1.1,0.1c-0.3,0.1-0.6,0.2-0.9,0.3
	c-0.2,0.1-0.4,0.3-0.5,0.5C10.1,4.4,10,4.6,10,4.8c0,0.3,0.1,0.5,0.2,0.7c0.2,0.2,0.4,0.3,0.7,0.3c0.3,0,0.5-0.1,0.7-0.3
	C11.9,5.3,12,5.1,12,4.8c0-0.2-0.1-0.4-0.2-0.6c-0.1-0.2-0.3-0.3-0.6-0.4c0.3-0.2,0.6-0.3,0.9-0.3c0.3,0,0.6,0.1,0.8,0.3
	c0.2,0.2,0.3,0.5,0.3,0.8v1c0,0.2-0.1,0.4-0.3,0.5c-0.3,0.2-0.7,0.3-1,0.4c-0.4,0.1-0.7,0.3-1.1,0.4c-0.3,0.1-0.5,0.3-0.7,0.6
	c-0.2,0.3-0.3,0.6-0.3,1c0,0.4,0.1,0.8,0.4,1.2C10.5,10.1,11,10.2,11.4,10.2L11.4,10.2z M12.3,9.4c-0.2,0-0.4-0.1-0.6-0.3
	c-0.2-0.2-0.2-0.5-0.2-0.7c0-0.2,0-0.5,0.1-0.7c0.1-0.2,0.2-0.3,0.3-0.5c0.1-0.1,0.3-0.3,0.5-0.4c0.2-0.1,0.3-0.2,0.4-0.3
	c0.1-0.1,0.2-0.2,0.2-0.3v2.6C13,9.2,12.7,9.4,12.3,9.4z M23.7,9.2l-2.2-3.6l0.8-0.9c0.4-0.5,1-0.8,1.6-1V3.4c-0.3,0-0.8,0-1.5,0
	c-0.5,0-1,0-1.5,0v0.3c0.3,0,0.5,0.1,0.7,0.2c0.2,0.1,0.3,0.3,0.3,0.5c0,0.3-0.2,0.6-0.4,0.8l-1,1c-0.1,0.1-0.2,0.2-0.3,0.2
	c-0.1,0.1-0.3,0.1-0.4,0.1V0c-0.6,0.1-1.3,0.2-1.9,0.2c-0.3,0-0.5,0-0.8,0v0.3c0.2,0,0.5,0.1,0.6,0.3c0.1,0.3,0.2,0.6,0.2,0.9v7.4
	c0,0.3,0,0.5-0.2,0.7c-0.2,0.2-0.4,0.2-0.6,0.2v0.3c0.9,0,1.5-0.1,1.8-0.1c0.3,0,0.8,0,1.7,0.1V9.8c-0.2,0-0.4,0-0.6-0.2
	c-0.1-0.2-0.2-0.5-0.2-0.7V6.7c0.1,0,0.2,0,0.4,0.1c0.1,0.1,0.2,0.2,0.3,0.3l1.3,2.3c0,0.1,0.1,0.1,0.1,0.2c0,0.1,0,0.1-0.1,0.2
	c-0.1,0-0.2,0.1-0.3,0.1v0.3c0.8,0,1.4-0.1,1.7-0.1c0.2,0,0.7,0,1.4,0.1V9.8c-0.1,0-0.2-0.1-0.3-0.2C23.9,9.5,23.8,9.3,23.7,9.2
	L23.7,9.2z M29,9.2c-0.3,0-0.6-0.1-0.8-0.3c-0.3-0.2-0.5-0.5-0.6-0.8c-0.2-0.5-0.3-0.9-0.2-1.4c0-0.3,0-0.5,0-0.6h3.6
	c0-1.9-0.8-2.9-2.4-2.9c-0.9,0-1.7,0.3-2.3,0.9c-0.6,0.7-0.9,1.7-0.9,2.7c-0.1,0.9,0.2,1.8,0.8,2.6c0.6,0.6,1.4,0.9,2.2,0.9
	c0.6,0,1.2-0.2,1.7-0.6c0.4-0.4,0.8-0.9,0.9-1.4l-0.2-0.1C30.3,8.8,29.7,9.2,29,9.2L29,9.2z M28.4,3.5c0.4,0,0.6,0.3,0.7,0.7
	c0.2,0.5,0.2,1.1,0.2,1.7h-2c0-0.6,0.1-1.2,0.4-1.8C27.8,3.8,28.1,3.6,28.4,3.5L28.4,3.5z M35,3.3c-0.6,0-1.1,0.2-1.6,0.5
	C33,4,32.8,4.5,32.8,5c0,0.3,0.1,0.6,0.2,0.9c0.1,0.2,0.3,0.5,0.5,0.7C33.7,6.8,34,7,34.4,7.3c0.3,0.3,0.6,0.5,0.7,0.6
	c0.2,0.1,0.3,0.3,0.4,0.5c0.1,0.2,0.2,0.4,0.2,0.6c0,0.3-0.1,0.5-0.3,0.7c-0.2,0.2-0.4,0.2-0.6,0.2c-1,0-1.6-0.8-1.7-2.4h-0.3
	c0,1.2,0,2.1-0.1,2.6H33c0-0.1,0.1-0.3,0.1-0.4c0-0.1,0.1-0.1,0.2-0.1c0.2,0.1,0.4,0.2,0.6,0.3c0.4,0.2,0.8,0.3,1.2,0.3
	c0.4,0,0.8-0.1,1.2-0.2c0.3-0.1,0.7-0.4,0.9-0.7c0.2-0.3,0.3-0.6,0.3-1c0-0.4-0.1-0.8-0.4-1.2c-0.3-0.4-0.7-0.8-1.2-1.1l-0.4-0.3
	c-0.3-0.2-0.6-0.5-0.9-0.8c-0.2-0.2-0.3-0.5-0.3-0.8c0-0.2,0.1-0.5,0.3-0.6c0.2-0.2,0.4-0.2,0.6-0.2c0.5,0,0.9,0.2,1.1,0.6
	C36.8,4.6,37,5,37.1,5.5h0.3c0-1.1,0-1.8,0.1-2.3h-0.3c0,0.1,0,0.2-0.1,0.4c0,0.1-0.1,0.1-0.2,0.1c-0.1,0-0.2,0-0.2-0.1
	c-0.2-0.1-0.4-0.2-0.6-0.3C35.6,3.3,35.3,3.3,35,3.3L35,3.3z"/>
</svg>
