<svg xmlns="http://www.w3.org/2000/svg" width="48.344" height="31.375" viewBox="0 0 48.344 31.375">
  <metadata><?xpacket begin="﻿" id="W5M0MpCehiHzreSzNTczkc9d"?>
<x:xmpmeta xmlns:x="adobe:ns:meta/" x:xmptk="Adobe XMP Core 5.6-c142 79.160924, 2017/07/13-01:06:39        ">
   <rdf:RDF xmlns:rdf="http://www.w3.org/1999/02/22-rdf-syntax-ns#">
      <rdf:Description rdf:about=""/>
   </rdf:RDF>
</x:xmpmeta>
                                                                                                    
                                                                                                    
                                                                                                    
                                                                                                    
                                                                                                    
                                                                                                    
                                                                                                    
                                                                                                    
                                                                                                    
                                                                                                    
                                                                                                    
                                                                                                    
                                                                                                    
                                                                                                    
                                                                                                    
                                                                                                    
                                                                                                    
                                                                                                    
                                                                                                    
                                                                                                    
                           
<?xpacket end="w"?></metadata>
<defs>
    <style>
      .cls-1 {
        fill: #fffefe;
        fill-rule: evenodd;
      }
    </style>
  </defs>
  <path id="ковычки_иллюстрация" data-name="ковычки иллюстрация" class="cls-1" d="M15.391,5.923A9.367,9.367,0,0,0,8.729,8.35a8.189,8.189,0,0,0-2.6,6.266A8.288,8.288,0,0,0,8.616,21a9.056,9.056,0,0,0,6.436,2.314A8.462,8.462,0,0,0,21.6,20.6a6.744,6.744,0,0,1,.339,2.145,10.7,10.7,0,0,1-.339,2.6A11.587,11.587,0,0,1,18.721,31.1a15.045,15.045,0,0,1-5.7,4.177l1.016,2.032A20.077,20.077,0,0,0,22.9,29.859a19.485,19.485,0,0,0,2.992-10.613,19.656,19.656,0,0,0-.677-5.194,14.309,14.309,0,0,0-1.806-4.177q-2.485-3.951-8.016-3.952h0Zm28.563,0A9.367,9.367,0,0,0,37.293,8.35a8.19,8.19,0,0,0-2.6,6.266A8.288,8.288,0,0,0,37.18,21a9.056,9.056,0,0,0,6.435,2.314,8.462,8.462,0,0,0,6.548-2.71,6.744,6.744,0,0,1,.339,2.145,10.7,10.7,0,0,1-.339,2.6A11.586,11.586,0,0,1,47.285,31.1a15.045,15.045,0,0,1-5.7,4.177L42.6,37.31a20.077,20.077,0,0,0,8.863-7.452,19.485,19.485,0,0,0,2.992-10.613,19.656,19.656,0,0,0-.677-5.194A14.309,14.309,0,0,0,51.97,9.875q-2.485-3.951-8.016-3.952h0Z" transform="translate(-6.125 -5.938)"/>
</svg>
