<svg xmlns="http://www.w3.org/2000/svg" width="185" height="185" viewBox="0 0 185 185">
  <metadata><?xpacket begin="﻿" id="W5M0MpCehiHzreSzNTczkc9d"?>
<x:xmpmeta xmlns:x="adobe:ns:meta/" x:xmptk="Adobe XMP Core 5.6-c142 79.160924, 2017/07/13-01:06:39        ">
   <rdf:RDF xmlns:rdf="http://www.w3.org/1999/02/22-rdf-syntax-ns#">
      <rdf:Description rdf:about=""/>
   </rdf:RDF>
</x:xmpmeta>
                                                                                                    
                                                                                                    
                                                                                                    
                                                                                                    
                                                                                                    
                                                                                                    
                                                                                                    
                                                                                                    
                                                                                                    
                                                                                                    
                                                                                                    
                                                                                                    
                                                                                                    
                                                                                                    
                                                                                                    
                                                                                                    
                                                                                                    
                                                                                                    
                                                                                                    
                                                                                                    
                           
<?xpacket end="w"?></metadata>
<defs>
    <style>
      .cls-1 {
        fill: none;
        stroke: #2d2829;
        stroke-linecap: round;
        stroke-width: 5px;
        stroke-dasharray: 0.001 15;
      }

      .cls-2 {
        fill: #2f2f2f;
        fill-rule: evenodd;
      }
    </style>
  </defs>
  <circle id="круг_3" data-name="круг 3" class="cls-1" cx="92.281" cy="91.438" r="85.5"/>
  <circle id="круг_3-2" data-name="круг 3" class="cls-1" cx="92.219" cy="91.406" r="59.5"/>
  <path id="_5_кг" data-name="5 кг" class="cls-2" d="M85.914,90.943a2.668,2.668,0,0,1,1.858.63,2.054,2.054,0,0,1,.7,1.593,2.2,2.2,0,0,1-.61,1.593,2.02,2.02,0,0,1-1.513.63,2.872,2.872,0,0,1-1.33-.337,2.574,2.574,0,0,1-1.028-.937l-0.69.879A2.882,2.882,0,0,0,84.58,96.18a3.947,3.947,0,0,0,1.737.4,3.4,3.4,0,0,0,2.439-.945,3.317,3.317,0,0,0,.992-2.519,3.123,3.123,0,0,0-.929-2.358,3.618,3.618,0,0,0-3.236-.791l0.389-2.835h3.7v-1.2H84.922l-0.661,5.281a4.523,4.523,0,0,1,1.653-.271h0Zm13.419-1.26-2.857,3.3,3.056,3.45H101.2l-3.246-3.523,2.96-3.23H99.333Zm-3.144,6.753V89.684h-1.2v6.753h1.2Zm7.485,0V90.812h3.085V89.684h-4.29v6.753h1.205Z"/>
</svg>
