<svg xmlns="http://www.w3.org/2000/svg" width="164" height="165" viewBox="0 0 164 165">
  <metadata><?xpacket begin="﻿" id="W5M0MpCehiHzreSzNTczkc9d"?>
<x:xmpmeta xmlns:x="adobe:ns:meta/" x:xmptk="Adobe XMP Core 5.6-c142 79.160924, 2017/07/13-01:06:39        ">
   <rdf:RDF xmlns:rdf="http://www.w3.org/1999/02/22-rdf-syntax-ns#">
      <rdf:Description rdf:about=""/>
   </rdf:RDF>
</x:xmpmeta>
                                                                                                    
                                                                                                    
                                                                                                    
                                                                                                    
                                                                                                    
                                                                                                    
                                                                                                    
                                                                                                    
                                                                                                    
                                                                                                    
                                                                                                    
                                                                                                    
                                                                                                    
                                                                                                    
                                                                                                    
                                                                                                    
                                                                                                    
                                                                                                    
                                                                                                    
                                                                                                    
                           
<?xpacket end="w"?></metadata>
<defs>
    <style>
      .cls-1 {
        fill: none;
        stroke: #2d2829;
        stroke-linecap: round;
        stroke-linejoin: round;
        stroke-width: 5px;
        stroke-dasharray: 0.001 15;
      }

      .cls-2 {
        fill: #2f2f2f;
        fill-rule: evenodd;
      }
    </style>
  </defs>
  <circle id="круг2" class="cls-1" cx="81.781" cy="81.469" r="76"/>
  <path id="_2_кг" data-name="2 кг" class="cls-2" d="M75.575,87.358V86.078H70.062q0.65-.556,1.237-1.142T72.877,83.2a10.721,10.721,0,0,0,1.595-2.434,5.736,5.736,0,0,0,.6-2.438,2.967,2.967,0,0,0-.853-2.122,3.189,3.189,0,0,0-2.419-.893,3.543,3.543,0,0,0-2.252.748A3.119,3.119,0,0,0,68.389,78.1l1.166,0.473a2.279,2.279,0,0,1,.766-1.408,2.088,2.088,0,0,1,1.366-.494,1.861,1.861,0,0,1,1.436.544,1.945,1.945,0,0,1,.5,1.375q0,1.653-1.924,4.053a49.591,49.591,0,0,1-3.414,3.6v1.1h7.286ZM86.492,79.7l-3.239,3.746,3.464,3.912h1.89l-3.681-4L88.282,79.7h-1.79Zm-3.564,7.658V79.7H81.562v7.658h1.366Zm8.485,0V80.979h3.5V79.7H90.047v7.658h1.366Z"/>
</svg>
