<svg xmlns="http://www.w3.org/2000/svg" width="211" height="210" viewBox="0 0 211 210">
  <metadata><?xpacket begin="﻿" id="W5M0MpCehiHzreSzNTczkc9d"?>
<x:xmpmeta xmlns:x="adobe:ns:meta/" x:xmptk="Adobe XMP Core 5.6-c142 79.160924, 2017/07/13-01:06:39        ">
   <rdf:RDF xmlns:rdf="http://www.w3.org/1999/02/22-rdf-syntax-ns#">
      <rdf:Description rdf:about=""/>
   </rdf:RDF>
</x:xmpmeta>
                                                                                                    
                                                                                                    
                                                                                                    
                                                                                                    
                                                                                                    
                                                                                                    
                                                                                                    
                                                                                                    
                                                                                                    
                                                                                                    
                                                                                                    
                                                                                                    
                                                                                                    
                                                                                                    
                                                                                                    
                                                                                                    
                                                                                                    
                                                                                                    
                                                                                                    
                                                                                                    
                           
<?xpacket end="w"?></metadata>
<defs>
    <style>
      .cls-1, .cls-2 {
        fill: none;
        stroke: #2d2829;
        stroke-linecap: round;
        stroke-width: 5px;
        stroke-dasharray: 0.001 15;
      }

      .cls-1, .cls-3 {
        fill-rule: evenodd;
      }

      .cls-3 {
        fill: #2f2f2f;
      }
    </style>
  </defs>
  <path id="круг_4" data-name="круг 4" class="cls-1" d="M105.578,4.906c55.013,0,99.61,45.016,99.61,100.547S160.591,206,105.578,206,5.969,160.984,5.969,105.453,50.565,4.906,105.578,4.906Z"/>
  <circle id="круг_4-2" data-name="круг 4" class="cls-2" cx="106.453" cy="105.344" r="47.578"/>
  <circle id="круг_4-3" data-name="круг 4" class="cls-2" cx="104.313" cy="104.063" r="69"/>
  <path id="_8_кг" data-name="8 кг" class="cls-3" d="M95.037,99.974a1.881,1.881,0,0,1-.583-1.379,1.8,1.8,0,0,1,.608-1.408,2.183,2.183,0,0,1,1.511-.544,2.316,2.316,0,0,1,1.532.523,1.76,1.76,0,0,1,.629,1.429,1.9,1.9,0,0,1-.57,1.383,1.818,1.818,0,0,1-1.337.577H96.386A1.855,1.855,0,0,1,95.037,99.974Zm3.4,2.512a1.988,1.988,0,0,1,.67,1.541,1.942,1.942,0,0,1-.691,1.553,2.727,2.727,0,0,1-1.832.59,2.681,2.681,0,0,1-1.8-.6,1.933,1.933,0,0,1-.708-1.541,1.909,1.909,0,0,1,.691-1.516,2.469,2.469,0,0,1,1.665-.594H96.81A2.393,2.393,0,0,1,98.438,102.486Zm2.119,1.69a2.971,2.971,0,0,0-.662-1.956,2.667,2.667,0,0,0-1.67-.967V101.2a3.028,3.028,0,0,0,1.428-1.142,2.934,2.934,0,0,0,.529-1.665,2.8,2.8,0,0,0-1.037-2.247,4.193,4.193,0,0,0-5.109,0A2.8,2.8,0,0,0,93,98.4a3.063,3.063,0,0,0,.537,1.756,2.639,2.639,0,0,0,1.336,1.068v0.049a3.077,3.077,0,0,0-1.624,1.1,3.037,3.037,0,0,0-.625,1.9,2.827,2.827,0,0,0,1.153,2.363,4.5,4.5,0,0,0,2.823.885,4.392,4.392,0,0,0,2.81-.9,2.95,2.95,0,0,0,1.14-2.446h0ZM111.649,99.7l-3.239,3.746,3.464,3.912h1.89l-3.681-4,3.356-3.662h-1.79Zm-3.564,7.658V99.7h-1.366v7.658h1.366Zm8.485,0v-6.379h3.5V99.7h-4.863v7.658h1.365Z"/>
</svg>
