<svg xmlns="http://www.w3.org/2000/svg" viewBox="0 0 33 32"><defs><filter id="a" x="0" y="0" width="33" height="32" filterUnits="userSpaceOnUse"><feFlood result="flood" flood-color="#f50049"/><feComposite result="composite" operator="in" in2="SourceGraphic"/><feBlend result="blend" in2="SourceGraphic"/></filter></defs><path data-name="иконка доставка" d="M31.239 7.211h-4.577a4.386 4.386 0 0 0 1.2-3.016v-.228A4.048 4.048 0 0 0 25.728.544a4.311 4.311 0 0 0-4.187 0L19.459 1.7A7.179 7.179 0 0 0 16.5 4.781 7.179 7.179 0 0 0 13.541 1.7L11.459.545a4.312 4.312 0 0 0-4.187 0 4.05 4.05 0 0 0-2.136 3.422v.228a4.387 4.387 0 0 0 1.2 3.016H1.761A1.745 1.745 0 0 0 0 8.936v4.094a1.745 1.745 0 0 0 1.761 1.725h.806v15.52A1.745 1.745 0 0 0 4.327 32h24.346a1.745 1.745 0 0 0 1.761-1.725v-15.52h.806A1.745 1.745 0 0 0 33 13.03V8.936a1.745 1.745 0 0 0-1.761-1.725zM20.18 2.947L22.262 1.8a2.83 2.83 0 0 1 2.748 0 2.627 2.627 0 0 1 1.39 2.215v.18a3.051 3.051 0 0 1-3.078 3.016h-6.047a5.686 5.686 0 0 1 2.905-4.264zM6.6 4.015A2.628 2.628 0 0 1 7.99 1.8a2.831 2.831 0 0 1 2.748 0l2.082 1.147a5.686 5.686 0 0 1 2.9 4.264H9.678A3.051 3.051 0 0 1 6.6 4.2v-.185zm6.6 12.926h-3.019a.719.719 0 1 0 0 1.437H13.2v12.185H4.327a.291.291 0 0 1-.294-.288v-15.52H13.2v2.186zm0-3.623H1.761a.291.291 0 0 1-.294-.288V8.936a.291.291 0 0 1 .294-.288H13.2v4.67zm5.133 17.245h-3.666V8.648h3.667v21.915zm10.633-.288a.291.291 0 0 1-.294.288H19.8V18.378h2.794a.719.719 0 1 0 0-1.437H19.8v-2.186h9.167v15.52zm2.567-17.245a.291.291 0 0 1-.294.288H19.8v-4.67h11.44a.291.291 0 0 1 .294.288v4.094zm-5.456 5.348h.073a.719.719 0 1 0 0-1.437h-.072a.719.719 0 1 0 0 1.437zm-19.453 0H6.7a.719.719 0 1 0 0-1.437h-.076a.719.719 0 1 0 0 1.437z" fill-rule="evenodd" filter="url(#a)"/></svg>