<svg xmlns="http://www.w3.org/2000/svg" width="48.344" height="31.375"><path data-name="ковычки иллюстрация" d="M9.266-.015a9.367 9.367 0 0 0-6.662 2.427 8.189 8.189 0 0 0-2.6 6.266 8.288 8.288 0 0 0 2.487 6.384 9.056 9.056 0 0 0 6.436 2.314 8.462 8.462 0 0 0 6.548-2.714 6.744 6.744 0 0 1 .339 2.145 10.7 10.7 0 0 1-.339 2.6 11.587 11.587 0 0 1-2.879 5.755 15.045 15.045 0 0 1-5.7 4.177l1.016 2.032a20.077 20.077 0 0 0 8.863-7.45 19.485 19.485 0 0 0 2.992-10.613 19.656 19.656 0 0 0-.677-5.194 14.309 14.309 0 0 0-1.806-4.177Q14.799-.014 9.268-.015zm28.563 0a9.367 9.367 0 0 0-6.661 2.427 8.19 8.19 0 0 0-2.6 6.266 8.288 8.288 0 0 0 2.487 6.384 9.056 9.056 0 0 0 6.435 2.314 8.462 8.462 0 0 0 6.548-2.71 6.744 6.744 0 0 1 .339 2.145 10.7 10.7 0 0 1-.339 2.6 11.586 11.586 0 0 1-2.878 5.751 15.045 15.045 0 0 1-5.7 4.177l1.015 2.033a20.077 20.077 0 0 0 8.863-7.452 19.485 19.485 0 0 0 2.992-10.613 19.656 19.656 0 0 0-.677-5.194 14.309 14.309 0 0 0-1.808-4.176Q43.36-.014 37.829-.015z" fill="#fffefe" fill-rule="evenodd"/></svg>