<svg xmlns="http://www.w3.org/2000/svg" viewBox="0 0 38 12"><path d="M4.556.799a4.609 4.609 0 0 0-2.368.606 4.208 4.208 0 0 0-1.619 1.7 5.3 5.3 0 0 0-.581 2.516 5.21 5.21 0 0 0 .568 2.51 3.875 3.875 0 0 0 1.594 1.61 4.955 4.955 0 0 0 2.394.555 3.422 3.422 0 0 0 1.277-.213 5.447 5.447 0 0 0 1.11-.626.566.566 0 0 1 .271-.1.226.226 0 0 1 .2.174 2.289 2.289 0 0 1 .11.587h.3q-.052-.916-.052-3.252h-.3a7.4 7.4 0 0 1-.29 1.587 1.887 1.887 0 0 1-.665.9 1.926 1.926 0 0 1-.729.471 2.474 2.474 0 0 1-.871.161 2.1 2.1 0 0 1-1.962-1.263 6.771 6.771 0 0 1-.658-3.148 7.079 7.079 0 0 1 .632-3.168A2.051 2.051 0 0 1 4.85 1.135a2.493 2.493 0 0 1 .89.161 2.19 2.19 0 0 1 .748.471 2.08 2.08 0 0 1 .658.877 6.442 6.442 0 0 1 .31 1.458h.3q0-2.245.052-3.123h-.3q-.074.771-.332.771a.418.418 0 0 1-.245-.116 4.475 4.475 0 0 0-1.058-.619A3.512 3.512 0 0 0 4.557.796zm6.864 9.406a1.975 1.975 0 0 0 1.058-.271 2.428 2.428 0 0 0 .761-.774 1.032 1.032 0 0 0 .31.774 1.437 1.437 0 0 0 .981.271 2.162 2.162 0 0 0 1.419-.477l-.129-.219a.847.847 0 0 1-.464.219.227.227 0 0 1-.219-.123 1.056 1.056 0 0 1-.065-.445V5.65a5.141 5.141 0 0 0-.1-1.123 1.424 1.424 0 0 0-.381-.7 1.724 1.724 0 0 0-.774-.439 4.133 4.133 0 0 0-1.1-.129 5.023 5.023 0 0 0-1.116.116 2.982 2.982 0 0 0-.858.323 1.73 1.73 0 0 0-.536.471 1.051 1.051 0 0 0-.174.613 1.047 1.047 0 0 0 .245.71.87.87 0 0 0 .7.284 1.063 1.063 0 0 0 .723-.258.877.877 0 0 0 .3-.7.962.962 0 0 0-.2-.606 1.2 1.2 0 0 0-.561-.387 1.308 1.308 0 0 1 .942-.31.957.957 0 0 1 .781.3 1.286 1.286 0 0 1 .252.845v1.017a.6.6 0 0 1-.329.542 5.227 5.227 0 0 1-1.039.413 9.1 9.1 0 0 0-1.1.419 2.1 2.1 0 0 0-.729.581 1.474 1.474 0 0 0-.31.961 1.59 1.59 0 0 0 .442 1.157 1.691 1.691 0 0 0 1.271.458zm.916-.826a.728.728 0 0 1-.587-.252 1.123 1.123 0 0 1-.213-.742 1.587 1.587 0 0 1 .142-.7 1.476 1.476 0 0 1 .348-.471q.206-.181.542-.426.258-.181.406-.3a1.038 1.038 0 0 0 .239-.277V8.85a1.047 1.047 0 0 1-.877.529zm11.342-.206L21.511 5.55l.826-.852a3.522 3.522 0 0 1 1.613-.996v-.258q-.439.039-1.51.039-.8 0-1.51-.039v.258a1.484 1.484 0 0 1 .723.2.535.535 0 0 1 .271.471 1.185 1.185 0 0 1-.426.787l-.981.955a.922.922 0 0 1-.329.232 1.576 1.576 0 0 1-.445.1V.012a8.308 8.308 0 0 1-1.884.181q-.387 0-.8-.039v.271a.721.721 0 0 1 .639.271 1.554 1.554 0 0 1 .187.865v7.355a1.077 1.077 0 0 1-.187.729.847.847 0 0 1-.639.2v.271q1.342-.051 1.781-.052.387 0 1.677.052v-.272a.76.76 0 0 1-.606-.2 1.168 1.168 0 0 1-.168-.729V6.696a1 1 0 0 1 .361.1.772.772 0 0 1 .271.3l1.277 2.31a.5.5 0 0 1 .065.194.2.2 0 0 1-.1.181.533.533 0 0 1-.284.065v.271q1.239-.051 1.665-.052.322 0 1.355.052v-.273a.714.714 0 0 1-.335-.213 4.739 4.739 0 0 1-.335-.458zm5.29.065a1.431 1.431 0 0 1-.818-.258 1.805 1.805 0 0 1-.619-.83 3.674 3.674 0 0 1-.239-1.419q0-.413.013-.606h3.626q0-2.865-2.426-2.865a3 3 0 0 0-2.3.923 3.755 3.755 0 0 0-.862 2.667 3.665 3.665 0 0 0 .806 2.574 2.819 2.819 0 0 0 2.174.871 2.412 2.412 0 0 0 1.658-.587 3.078 3.078 0 0 0 .923-1.426l-.232-.077a1.942 1.942 0 0 1-1.7 1.032zm-.542-5.7a.777.777 0 0 1 .677.665 4.928 4.928 0 0 1 .2 1.684h-2.024a4.609 4.609 0 0 1 .381-1.774.887.887 0 0 1 .768-.574zm6.606-.271a2.574 2.574 0 0 0-1.574.477 1.534 1.534 0 0 0-.645 1.3 1.763 1.763 0 0 0 .213.865 2.675 2.675 0 0 0 .516.671q.3.284.884.748.49.387.736.606a2 2 0 0 1 .406.5 1.284 1.284 0 0 1 .161.645.858.858 0 0 1-.265.69.95.95 0 0 1-.639.226q-1.484 0-1.742-2.374h-.269q0 1.845-.052 2.581h.271a.894.894 0 0 1 .148-.368.2.2 0 0 1 .227-.084 6.322 6.322 0 0 1 .594.271 2.527 2.527 0 0 0 1.213.271 3.146 3.146 0 0 0 1.226-.232 2.084 2.084 0 0 0 .884-.671 1.632 1.632 0 0 0 .325-1.003 1.792 1.792 0 0 0-.374-1.161 6.686 6.686 0 0 0-1.161-1.058l-.374-.271a6.5 6.5 0 0 1-.929-.768 1.064 1.064 0 0 1-.3-.755.763.763 0 0 1 .252-.606.937.937 0 0 1 .644-.217 1.3 1.3 0 0 1 1.142.574 3.268 3.268 0 0 1 .51 1.426h.27q0-1.613.052-2.271h-.271a.788.788 0 0 1-.11.355.241.241 0 0 1-.2.123.418.418 0 0 1-.232-.09 2.21 2.21 0 0 0-.632-.277 3.167 3.167 0 0 0-.9-.123z" fill-rule="evenodd"/></svg>