<svg xmlns="http://www.w3.org/2000/svg" width="185" height="185"><defs><style>.cls-1{fill:none;stroke:#2d2829;stroke-linecap:round;stroke-width:5px;stroke-dasharray:.001 15}</style></defs><circle id="круг_3" data-name="круг 3" class="cls-1" cx="92.281" cy="91.438" r="85.5"/><circle id="круг_3-2" data-name="круг 3" class="cls-1" cx="92.219" cy="91.406" r="59.5"/><path id="_5_кг" data-name="5 кг" d="M85.914 90.943a2.668 2.668 0 0 1 1.858.63 2.054 2.054 0 0 1 .7 1.593 2.2 2.2 0 0 1-.61 1.593 2.02 2.02 0 0 1-1.513.63 2.872 2.872 0 0 1-1.33-.337 2.574 2.574 0 0 1-1.028-.937l-.69.879a2.882 2.882 0 0 0 1.279 1.186 3.947 3.947 0 0 0 1.737.4 3.4 3.4 0 0 0 2.439-.945 3.317 3.317 0 0 0 .992-2.519 3.123 3.123 0 0 0-.929-2.358 3.618 3.618 0 0 0-3.236-.791l.389-2.835h3.7v-1.2h-4.75l-.661 5.281a4.523 4.523 0 0 1 1.653-.271zm13.419-1.26l-2.857 3.3 3.056 3.45h1.668l-3.246-3.523 2.96-3.23h-1.581zm-3.144 6.753v-6.752h-1.2v6.753h1.2zm7.485 0v-5.624h3.085v-1.128h-4.29v6.753h1.205z" fill="#2f2f2f" fill-rule="evenodd"/></svg>