<svg id="Слой_1" data-name="Слой 1" xmlns="http://www.w3.org/2000/svg" viewBox="0 0 62.52 62.12"><title>index.comet-spinner123</title>

<path d="M15.16,42.21H54.84V48H15.16Z" transform="translate(-3.23 -3.77)" style="fill:#c90005"/>
<path d="M20.57,26.46a4.55,4.55,0,0,0,4.85,0,6.44,6.44,0,0,1,3.58-1,6.38,6.38,0,0,1,3.57,1,4.57,4.57,0,0,0,4.86,0,6.38,6.38,0,0,1,3.57-1,6.44,6.44,0,0,1,3.58,1,4.55,4.55,0,0,0,4.85,0,6.45,6.45,0,0,1,3-1,5.63,5.63,0,0,0-5.47-4.4h-2a2.73,2.73,0,0,0,0-.41c0-3.29-3.68-5.32-3.68-5.32a8.72,8.72,0,0,0-3.11,3.09A8.65,8.65,0,0,0,35,15.35a8.65,8.65,0,0,0-3.1,3.09,8.72,8.72,0,0,0-3.11-3.09s-3.68,2-3.68,5.32a2.73,2.73,0,0,0,0,.41H23.09a5.63,5.63,0,0,0-5.47,4.4A6.45,6.45,0,0,1,20.57,26.46Z" transform="translate(-3.23 -3.77)" style="fill:#c90005"/>
<path d="M17.48,35.61h35v4.27h-35Z" transform="translate(-3.23 -3.77)" style="fill:#c90005"/><path d="M52.52,33.29V27.8a4.21,4.21,0,0,0-1.94.68,6.83,6.83,0,0,1-7.15,0,4.55,4.55,0,0,0-4.85,0,6.85,6.85,0,0,1-7.16,0,4.55,4.55,0,0,0-4.85,0,6.83,6.83,0,0,1-7.15,0,4.21,4.21,0,0,0-1.94-.68v5.49Z" transform="translate(-3.23 -3.77)" style="fill:#c90005"/>
<g transform="rotate(101.952 31.26 31.26)">
	<animateTransform attributeName="transform" type="rotate" repeatCount="indefinite" values="360 31.26 31.26;240 31.26 31.26;120 31.26 31.26;0 31.26 31.26" keyTimes="0;0.333;0.667;1" dur="1s" keySplines="0.7 0 0.3 1;0.7 0 0.3 1;0.7 0 0.3 1" calcMode="spline"></animateTransform>
	<path d="M12.55,59.58C-1.58,45.57.46,21,18,10.78A29.05,29.05,0,0,0,6.07,37.46a28.29,28.29,0,0,0,6.4,14.74c1.31,1.56,4.7,3.5,4.51,5.75A2.61,2.61,0,0,1,12.55,59.58Z" transform="translate(-3.23 -3.77)" style="fill:#e15b64"/>
	<path d="M65.72,42a2.65,2.65,0,0,0-4.84-1.81c-.68,1.15-.67,2.79-1.06,4a33.87,33.87,0,0,1-1.55,4.25,28.43,28.43,0,0,1-7.66,9.83A29.2,29.2,0,0,1,20.69,62a30.67,30.67,0,0,0,27.43,1.23,31,31,0,0,0,9.86-7C61.49,52.49,64.9,47.2,65.72,42Z" transform="translate(-3.23 -3.77)" style="fill:#f8b26a"/>
	<path d="M62.83,27.23A31.15,31.15,0,0,0,31,3.82c-2.31.08-10.75.44-8.54,4.84,1,1.94,2.86,1.4,4.55.82a29.73,29.73,0,0,1,7.09-1.36,28.19,28.19,0,0,1,17,4.82A29.61,29.61,0,0,1,63.68,34.06,31,31,0,0,0,62.83,27.23Z" transform="translate(-3.23 -3.77)" style="fill:#849b87"/>
</g>
</svg>